PathFileType	4	(X/Y/Z)	Patient4_TMGait_0pt8_01_right_09.trc.trc
DataRate	CameraRate	NumFrames	NumMarkers	Units	OrigDataRate	OrigDataStartFrame	OrigNumFrames
89.743589743590	89.743589743590	5	33	mm	89.743589743590	18	       141
Frame#	Time	Sacral			L.Shoulder			Chest			R.Shoulder			Neck			R.ASIS			L.ASIS			R.Thigh.Superior			R.Thigh.Lateral			R.Thigh.Inferior			R.Patella			L.Thigh.Superior			L.Thigh.Lateral			L.Thigh.Inferior			L.Patella			L.Shank.Superior			L.Shank.Lateral			L.Shank.Inferior			R.Shank.Superior			R.Shank.Lateral			R.Shank.Inferior			R.Heel			R.Midfoot.Superior			R.Midfoot.Lateral			R.Toe			L.Heel			L.Midfoot.Lateral			L.Midfoot.Superior			L.Toe			L.Elbow			L.Wrist			R.Elbow			R.Wrist			
		X1	Y1	Z1	X2	Y2	Z2	X3	Y3	Z3	X4	Y4	Z4	X5	Y5	Z5	X6	Y6	Z6	X7	Y7	Z7	X8	Y8	Z8	X9	Y9	Z9	X10	Y10	Z10	X11	Y11	Z11	X12	Y12	Z12	X13	Y13	Z13	X14	Y14	Z14	X15	Y15	Z15	X16	Y16	Z16	X17	Y17	Z17	X18	Y18	Z18	X19	Y19	Z19	X20	Y20	Z20	X21	Y21	Z21	X22	Y22	Z22	X23	Y23	Z23	X24	Y24	Z24	X25	Y25	Z25	X26	Y26	Z26	X27	Y27	Z27	X28	Y28	Z28	X29	Y29	Z29	X30	Y30	Z30	X31	Y31	Z31	X32	Y32	Z32	X33	Y33	Z33	

18	10.029428571429	850.362241632924	998.794518922886	437.742309567996	1061.259200408420	1432.822933376438	282.614545756469	1142.787041534843	1351.660184626119	450.582823923165	1043.349524291394	1421.759360071018	617.422549568352	1032.107162215738	1487.196928593161	438.938323019105	1071.056048513910	938.686342061287	570.646307221158	1071.873915074124	956.348517027558	293.455836685580	1156.386959755037	780.646726960234	543.774628057278	1125.083788281855	656.645039855387	623.376049834801	1218.981331651260	626.272016637634	546.996960315467	1259.723312000794	541.261230535396	569.794760749449	1073.612805120463	729.279181574038	321.226296219654	956.503257509893	635.697428664043	255.953919882762	1015.067462240306	541.422953135415	320.272164040774	999.486233123339	476.516416793496	329.644950862319	967.757598527362	409.616627234210	321.125003160353	867.147546757580	304.391279933971	272.750979683170	907.026848257156	188.815095291231	343.572752873385	1239.681774153997	449.467840033742	578.436171405866	1179.811809308617	338.523920197549	641.247317361723	1246.085034616018	249.244464045631	592.654394703806	1148.635729064264	62.584573024196	563.517371775656	1308.960431261804	138.992536536347	609.487546154758	1230.495904361368	61.079087614370	640.001557233691	1432.061998319646	103.907889422930	639.859361240122	771.465642958166	38.985113745679	392.553522656587	838.589576891509	35.529658607987	306.270050225495	924.021398880572	95.891124426914	328.173005886599	1049.444616901195	43.940370732753	288.462211980502	1139.107846856623	1122.627583891010	111.030043361052	1386.246558553406	1050.355025970254	139.965425664525	902.035090513072	1098.481416726140	707.403533145628	878.363238035463	838.716944749219	725.044763905070	
19	10.040571428571	852.422917702908	996.342975371383	439.619379996030	1061.323722066430	1431.041708664857	284.395955984975	1143.400316374019	1350.103883130199	452.215486706910	1043.975491673084	1420.145055302893	619.109466249506	1032.376028272478	1485.251868086698	440.540200778109	1073.251877853336	936.425586490464	572.359062326689	1073.738542886779	954.591118094113	294.849052383150	1156.651139002100	775.919359369927	546.272074269165	1122.295550397686	651.842918365052	624.984998666416	1216.507299261429	621.108596389420	549.133389913687	1255.991465967959	537.438595905959	570.729787714606	1072.776059979644	726.985301125787	322.079974198185	954.054687435417	634.870399154745	256.964097989289	1011.413155418501	539.806559906918	321.102267514006	995.070466849644	474.858999779125	330.316471927915	962.501722984694	408.375609230762	321.761730700977	860.554863633969	304.393587749128	273.200018473514	899.212808814821	188.195956615847	343.743841737130	1238.536058045237	445.791430677871	579.527703044969	1181.419452559588	332.861037854908	641.445625705125	1251.038448236003	245.730427191517	593.127301540491	1159.641747940231	56.231569290225	562.949792021585	1317.525592884276	137.007086080704	609.689110891173	1241.070148948624	57.059644332029	639.914738048692	1441.572394068727	105.549779478773	641.038797280494	762.489522162518	38.887903261553	392.536176052828	829.628187501849	35.439005660428	306.292065285634	915.108568788380	95.746594668310	328.242267110780	1040.496614876927	43.620942017691	288.435268261698	1141.936600701514	1122.457312387876	112.314895049135	1391.362278447666	1062.229268311023	143.435944676229	897.254250390422	1100.498737802827	709.379687975632	865.726605554734	841.821951155353	726.537067611770	
20	10.051714285714	854.695097310272	993.740304861258	441.835081530528	1061.234997868111	1429.089832979967	286.266414809131	1144.026311708746	1348.528883240111	453.916944901738	1044.642329319238	1418.475352721515	620.905107212826	1032.618429276439	1483.184343321865	442.251262026207	1075.755089167939	933.984656421131	574.200220523373	1075.760500293995	952.680128319415	296.441726194115	1157.370101403581	771.100816393640	548.835004875914	1119.862270334246	646.943817044641	626.354884145774	1214.422537792290	615.920180844218	551.095642402146	1252.412093466138	533.206651959514	571.433316811945	1072.380234977917	724.620451341374	323.082725972237	952.161686621629	633.852687208860	258.185488554140	1008.476545221275	538.024046567414	322.080543056975	991.417271592654	472.905681108113	331.134861296166	957.874674046958	406.882829614168	322.530475511396	854.367685270105	304.360986661376	273.758583484038	891.594307097168	187.471852144331	343.937699378097	1237.027387967007	441.659374789369	580.350073626529	1181.793757226694	327.220006653402	641.142178328052	1254.086407011579	241.880847514674	593.145072592057	1167.206858154030	50.931763624091	561.756676720616	1323.262652993975	134.296259792701	609.337602008814	1248.041459336550	53.314047665685	639.293083008983	1447.778856381307	105.153799056840	641.788341469284	753.482360333387	38.778124561932	392.485118010834	820.671777525063	35.319322987823	306.301795588696	906.218480552447	95.586836225147	328.307701052119	1031.583100601454	43.257906747532	288.392716313441	1144.411860877591	1121.922699795292	113.838447520106	1395.420865796397	1073.278569311855	147.061286018222	892.638490653946	1102.574316649834	711.529243705804	854.748322973325	844.969502159085	727.902266995708	
21	10.062857142857	857.124412236391	991.062910311252	444.377794631165	1061.030962527511	1426.998086485387	288.221164842685	1144.679180916408	1346.962862684638	455.691045568383	1045.360817919390	1416.778411177407	622.810534561640	1032.859475224931	1481.040066139111	444.077612506640	1078.504363165401	931.432431597163	576.167689013157	1077.899706597030	950.643588106265	298.263581511776	1158.559647055174	766.344386902043	551.421128886344	1117.877500092078	642.115888897180	627.468805022382	1212.826534955288	610.888507312200	552.872782745129	1249.143584257708	528.730893705368	571.924116659777	1072.463252383978	722.215961795827	324.256583091407	950.889420465305	632.637399908409	259.646222244467	1006.359191446724	536.071178280502	323.220027892800	988.642665854805	470.628919706601	332.103359893586	953.954854732134	405.125733683549	323.443434650339	848.656515004548	304.317211828912	274.440073553118	884.197122664665	186.661517823228	344.160398212881	1235.304515313049	437.227569814020	580.911480536587	1181.125166221884	321.724550249675	640.448987314589	1255.372015341134	237.754985163261	592.769075582301	1171.322766533546	46.718288369327	560.116006654779	1326.323218004230	130.824918096490	608.473551169760	1251.496308132636	49.846982366763	638.264071475309	1450.888695487147	102.587220769596	642.049491938040	744.440271238240	38.726672549339	392.387010905570	811.722777552073	35.197495964778	306.293695486728	897.373654702932	95.424021835214	328.356453757177	1022.715476947034	42.848900413889	288.331688982715	1146.502306758735	1121.007872455794	115.592535874425	1398.479157712812	1083.388869220036	150.805779907073	888.332304507165	1104.606042236376	713.810526511328	845.355383750940	847.965196227949	729.195492309875	
22	10.074000000000	859.646401295958	988.403835804186	447.213296186614	1060.762988534198	1424.815352468649	290.253539352632	1145.377112853214	1345.441169115341	457.540834987688	1046.149754096569	1415.098272464354	624.825276125908	1033.131978624420	1478.883099456389	446.023557773837	1081.424645908049	928.866512588617	578.261218609601	1080.112188914626	948.525401170822	300.330787996069	1160.206127577819	761.812821578935	553.995334811838	1116.419743933345	637.545446365099	628.354473363922	1211.787063760130	606.197375112032	554.473175043988	1246.328276260536	524.207179462662	572.242257871088	1073.045898118646	719.819141367414	325.619442893736	950.289382016038	631.233438456361	261.364943574917	1005.155902490109	533.962174850839	324.522677583870	986.857676303734	468.021948931517	333.206169139004	950.810736552391	403.114208147193	324.498647151157	843.491157422474	304.309660246904	275.249120928386	877.055754798527	185.809267636214	344.407891065402	1233.524326364140	432.690998617678	581.246765225951	1179.669809213982	316.532731340012	639.528330942616	1255.117671492179	233.473865983536	592.093773700386	1172.167465421339	43.590218033456	558.244388396820	1326.963433003489	126.667461315952	607.178725988725	1251.704476346296	46.697458363577	636.987581203754	1451.232050035720	97.949890528736	641.799372009828	735.370224978999	38.848441732591	392.228026933742	802.787639179851	35.124298490838	306.260646396099	888.609850647587	95.276959668198	328.367329381348	1013.903021314054	42.395412862352	288.249723655240	1148.172110538659	1119.704573663356	117.575481704742	1400.598133809707	1092.456696976534	154.638510386337	884.500790007414	1106.486973821649	716.183751959001	837.488809021671	850.657463225648	730.476722928340	
